<svg xmlns="http://www.w3.org/2000/svg" width="26.861" height="22.662" viewBox="0 0 26.861 22.662">
  <g id="camera" transform="translate(-201.534 -849.806)">
    <path id="패스_22" data-name="패스 22" d="M211.967,2042.036a19.812,19.812,0,0,1,5.99,0c1.1.5,2.44,2.775,3.234,3.143s2.806-.017,3.637.241.968.57,1.533,1.432.4,1.241.726,2.015.258,2.355.3,4.5a18.114,18.114,0,0,1-.3,5.006,4.562,4.562,0,0,1-1.723,2.563,8.571,8.571,0,0,1-3.541,1.054,43.488,43.488,0,0,1-6.846.481c-3.692,0-6.468-.053-7.719-.481a13.08,13.08,0,0,1-2.608-1.054,4.509,4.509,0,0,1-1.822-2.56,26.018,26.018,0,0,1-.3-5.01,16.2,16.2,0,0,1,.3-4.408,4.921,4.921,0,0,1,.841-2.1,4.1,4.1,0,0,1,1.835-1.432c.731-.282,2.331.229,3.263-.241S211.036,2042.445,211.967,2042.036Z" transform="translate(0 -1191)" fill="none" stroke="#000" stroke-linecap="round" stroke-linejoin="round" stroke-width="2"/>
    <g id="타원_29" data-name="타원 29" transform="translate(209.5 856.5)" fill="none" stroke="#000" stroke-width="2">
      <circle cx="5.5" cy="5.5" r="5.5" stroke="none"/>
      <circle cx="5.5" cy="5.5" r="4.5" fill="none"/>
    </g>
  </g>
</svg>
