<svg xmlns="http://www.w3.org/2000/svg" width="24.851" height="27.819" viewBox="0 0 24.851 27.819">
  <g id="spotlight" transform="translate(-376.149 -844)">
    <path id="패스_25" data-name="패스 25" d="M381.771,2051.039c-.518-.288-13.512-8.74-14.08-9.1s-1.6.635-1.537,1.505-.032,16.771,0,17.26.972,1.365,1.537,1,14.2-8.479,14.663-8.895S382.289,2051.328,381.771,2051.039Z" transform="translate(11 -1191)" fill="none" stroke="#000" stroke-width="2"/>
    <g id="패스_26" data-name="패스 26" transform="translate(385 844)" fill="#26a6f1">
      <path d="M 8 15 C 4.140190124511719 15 1 11.85980987548828 1 8 C 1 4.140190124511719 4.140190124511719 1 8 1 C 11.85980987548828 1 15 4.140190124511719 15 8 C 15 11.85980987548828 11.85980987548828 15 8 15 Z" stroke="none"/>
      <path d="M 8 2 C 4.691590309143066 2 2 4.691590309143066 2 8 C 2 11.30841064453125 4.691590309143066 14 8 14 C 11.30841064453125 14 14 11.30841064453125 14 8 C 14 4.691590309143066 11.30841064453125 2 8 2 M 8 0 C 12.41827964782715 0 16 3.581720352172852 16 8 C 16 12.41827964782715 12.41827964782715 16 8 16 C 3.581720352172852 16 0 12.41827964782715 0 8 C 0 3.581720352172852 3.581720352172852 0 8 0 Z" stroke="none" fill="#e0e4e3"/>
    </g>
  </g>
</svg>
