<svg xmlns="http://www.w3.org/2000/svg" width="27.357" height="20.789" viewBox="0 0 27.357 20.789">
  <g id="stories" transform="translate(-280.825 -851.5)">
    <circle id="타원_30" data-name="타원 30" cx="5" cy="5" r="5" transform="translate(295 851.5)"/>
    <path id="패스_23" data-name="패스 23" d="M292.577,2060.429c0-1.59.867-2.852,2.785-4.378a7.02,7.02,0,0,1,4.887-1.728,8.292,8.292,0,0,1,5.069,2.026,6.025,6.025,0,0,1,2.32,4.081c.279,1.274-1.563,2.072-2.32,2.279a38.7,38.7,0,0,1-5.069,0c-2.489,0-4.129.066-4.887,0S292.577,2062.019,292.577,2060.429Z" transform="translate(0 -1191)" stroke="#000" stroke-linecap="round" stroke-linejoin="round" stroke-width="1"/>
    <circle id="타원_31" data-name="타원 31" cx="4" cy="4" r="4" transform="translate(282.667 852.5)"/>
    <path id="패스_24" data-name="패스 24" d="M292.577,2058.645c0-1.125.614-2.019,1.972-3.1a4.968,4.968,0,0,1,3.46-1.223,5.867,5.867,0,0,1,3.589,1.434c1.308,1.081,1.171,1.793.378,2.513s-.371,1.975-.779,2.254a6.174,6.174,0,0,1-3.189.613,7.6,7.6,0,0,1-3.46-.613C293.736,2060.152,292.577,2059.771,292.577,2058.645Z" transform="translate(-11.252 -1192)" stroke="#000" stroke-linecap="round" stroke-linejoin="round" stroke-width="1"/>
  </g>
</svg>
